<mxfile host="app.diagrams.net" modified="2024-04-15T01:48:23.856Z" agent="Mozilla/5.0 (Windows NT 10.0; Win64; x64) AppleWebKit/537.36 (KHTML, like Gecko) Chrome/123.0.0.0 Safari/537.36" etag="42jtb-AKnYUkH1-PBplT" version="24.2.5" type="device">
  <diagram name="Page-1" id="SqJDjFu4kGk5k9VuLv-n">
    <mxGraphModel dx="1434" dy="746" grid="1" gridSize="10" guides="1" tooltips="1" connect="1" arrows="1" fold="1" page="1" pageScale="1" pageWidth="827" pageHeight="1169" math="0" shadow="0">
      <root>
        <mxCell id="0" />
        <mxCell id="1" parent="0" />
        <mxCell id="FOWHEMkgikIakCdDPIZg-1" value="&lt;h1 style=&quot;margin-top: 0px;&quot;&gt;Corporate Dynamics&lt;/h1&gt;&lt;div&gt;URL:&lt;/div&gt;&lt;div&gt;&lt;ul&gt;&lt;li&gt;Dev&lt;/li&gt;&lt;li&gt;DevInt&lt;/li&gt;&lt;li&gt;Test&lt;/li&gt;&lt;li&gt;Acc&lt;/li&gt;&lt;li&gt;Preprod&lt;/li&gt;&lt;li&gt;Prod&lt;/li&gt;&lt;/ul&gt;&lt;/div&gt;" style="text;html=1;whiteSpace=wrap;overflow=hidden;rounded=0;" vertex="1" parent="1">
          <mxGeometry x="10" y="10" width="810" height="760" as="geometry" />
        </mxCell>
      </root>
    </mxGraphModel>
  </diagram>
</mxfile>
